<svg xmlns="http://www.w3.org/2000/svg" width="144" height="80" viewBox="0 0 144 80">
    <g fill="none" fill-rule="evenodd">
        <path fill="#F9E300" d="M130.881 14.163C108.038-.886 63.148-4.517 30.618 6.049-1.91 16.618-9.765 37.389 13.074 52.441c8.227 5.418 19.31 9.344 31.643 11.674 0 0 12.037 1.692 10.74 6.925-.604 2.414-2.144 4.43-6.629 7.064l-.103.063c-.288.153-.496.422-.496.74 0 .48.415.885.969.885l.332-.045.406-.072c17.255-3.178 88.137-17.638 93.414-42.075 2.252-7.967-1.693-16.337-12.469-23.437"/>
        <path fill="#E0119D" d="M42.575 50.578a.247.247 0 0 1-.225-.084.669.669 0 0 1-.15-.464c0-.063.002-.124.005-.175.032-.409.2-.923.687-1.124.257-.098.563-.147.88-.148l.06.001.136.049c.056.063.089.111.105.15l.101-.007c.294-.041.653-.174.993-.23l.07-.01a.245.245 0 0 1 .16.055.237.237 0 0 1 .204-.045c.065.01.133.017.204.017.191.002.42-.046.676-.075l.106-.082c.306-.128.64-.161.971-.161.482 0 .967.072 1.34.072l.001-.002c.394.002.765-.12 1.123-.261a.26.26 0 0 1 .219.015l.08.06c.286-.108.602-.197.962-.199l.028-.001c.256 0 .503.015.744.015h.166c1.639-.057 3.284-.3 4.918-.376.305-.014.59-.015.898-.021l.104-.012h.007l.03.001.013.002c.14.01.276.019.41.019 1.226.003 2.368-.451 3.697-.457.17 0 .34.007.52.026l.11.04c.04-.004.085-.006.135-.006.066 0 .128.023.174.066.505-.194 1.155-.11 1.565-.213.09-.02.184.012.245.08l.052-.018c.64-.178 1.407-.222 2.12-.3.085-.006.195-.038.33-.039l.06.004c.192.03.302.107.348.109.211.047.446.07.681.127l.05-.109a.506.506 0 0 1 .137-.116.25.25 0 0 1 .24-.139h.052c.142.002.352-.03.574-.03.126 0 .262.01.4.05.071.006.142.006.207.006.188 0 .358-.01.56-.026a.259.259 0 0 1 .184.056l.052.002.074-.002c.453-.02 1.113-.195 1.556-.297a.246.246 0 0 1 .27.118c.03.049.04.107.03.162l.042.03c.146-.014.293-.028.45-.028.097-.002.196.003.296.017.06.008.113.034.15.075a.713.713 0 0 0 .263-.102.261.261 0 0 1 .237-.028c.2.081.459.133.699.133.1 0 .199-.01.287-.027.147-.02.36-.178.724-.183.062 0 .127.004.201.019a.205.205 0 0 1 .132.07c.141-.034.313-.085.547-.09l.059.003c.059.003.114.03.156.07l.057-.01c.323-.04.634-.138.886-.249a.254.254 0 0 1 .275.047l.017.019c.314-.055.681-.13 1.05-.132.088 0 .178.004.268.017.234-.174.502-.104.703-.136.154-.007.292-.01.425-.01.238 0 .454.01.748.01.047 0 .093.014.128.04.357-.038.73-.048 1.11-.048.607 0 1.229.028 1.817.03l.126.034c.085.057.135.11.166.148.357-.052.581-.384 1.249-.413a.259.259 0 0 1 .188.08c.37-.005.771-.011 1.176-.011.29 0 .585.001.867.01.077.002.149.04.192.1.1-.008.194-.017.287-.027.124-.01.291-.071.496-.072h.03c.21.016.36.092.452.093.13.013.26.016.393.016.444 0 .902-.054 1.358-.072.255-.012.51-.02.765-.02.37 0 .74.018 1.109.085l.023-.057a.246.246 0 0 1 .238-.15c.053.001.109.004.168.004.152 0 .314-.007.478-.007.304.003.608.009.875.17l.054.046.012-.001c.182-.02.345-.027.529-.035l.06-.01a.263.263 0 0 1 .243-.173l.068.01c1.073.088 2.38 0 3.582.114.256.027.423.084.604.083l.061-.003c1.054-.065 2.241-.227 3.376-.227.114 0 .23.001.341.006.027.004.06-.002.133.034l.011.005c.192.012.412.03.635.056.256.044.566.052.813.25.74-.046 1.577-.23 2.402-.23.17 0 .337.007.508.03a.234.234 0 0 1 .155.074c.158-.019.338-.054.521-.056l.04.002c.023.003.051 0 .108.024l.08.06c.11-.009.246-.043.43-.072l.1.006c.009.011.08.008.14.085.226.013.45.021.672.021.811.003 1.583-.089 2.434-.089.159-.002.322.001.49.012a.248.248 0 0 1 .177.085 2.53 2.53 0 0 1 .295-.062c.636-.07 1.388-.035 2.034-.07a.244.244 0 0 1 .179.06c.264.026.491.088.708.135a.243.243 0 0 1 .177-.102l.125-.006c.099 0 .19.006.269.006l.076-.002.017-.021a.258.258 0 0 1 .191-.083l.083.013c.34.093.42.22.648.21h.065a.246.246 0 0 1 .24.149l.017.073.163.03a.53.53 0 0 1 .205-.084.236.236 0 0 1 .134-.097l.112-.019c.138.013.249.028.366.177a.63.63 0 0 1 .138-.024.242.242 0 0 1 .234-.134c1.164.046 2.436.072 3.726.245.2.04.44-.008.689.196.3.286.599.792.624 1.352l.001.04a1.527 1.527 0 0 1-.342.937c-.193.222-.494.458-.889.464a.809.809 0 0 1-.254-.04l-.094-.053c-.316.021-.636.032-.93.064a.25.25 0 0 1-.133.088 3.105 3.105 0 0 1-.833.091c-.223 0-.434-.011-.623-.014a.248.248 0 0 1-.194-.092l-.115.012a.252.252 0 0 1-.225-.101l-.05-.064h-.087c-.234-.004-.407-.062-.527-.076l-.029.034a.244.244 0 0 1-.205.08 1.636 1.636 0 0 0-.228-.016c-.492-.003-1.036.15-1.605.153h-.066a.24.24 0 0 1-.184-.077c-.147.01-.305.03-.475.034a1.01 1.01 0 0 1-.527-.132.245.245 0 0 1-.112-.22l-.06.008a.333.333 0 0 1-.107.142.388.388 0 0 1-.227.078.396.396 0 0 1-.307-.167c-.592.012-1.186.06-1.698.176a.243.243 0 0 1-.176-.023l-.037-.022h-.043c-.417-.002-.824.092-1.28.092-.133 0-.272-.007-.412-.029a.268.268 0 0 1-.14-.075 2.261 2.261 0 0 0-.164-.006c-.222-.003-.463.033-.714.035a1.42 1.42 0 0 1-.52-.09l-.078-.05-.032-.039a.24.24 0 0 1-.11-.104l-.003-.007c-.13.017-.348.184-.694.198a.713.713 0 0 1-.229-.036l-.069-.033c-.541.01-1.097.02-1.587.04l-.02.005c-.058.021-.087.02-.11.021-.07-.004-.104-.01-.116-.011a.278.278 0 0 1-.171-.039l-.038-.03a5.597 5.597 0 0 0-.962-.063l-.652.002c-.4 0-.79-.01-1.149-.094l-.073.032c-.07.019-.126.028-.156.033l-.001-.003-.109.035-.027.001a.267.267 0 0 1-.133-.036l-.122.036-.043.046c-.105.08-.178.066-.217.07l-.075-.004a.275.275 0 0 1-.187-.044c-.164.003-.378.063-.638.064h-.069c-.112.044-.214.041-.305.044-.081 0-.158-.004-.22-.004l-.053.001a.25.25 0 0 1-.26-.177c-.293.072-.61.17-1.003.176-.072 0-.144-.005-.219-.01-.175-.022-.312-.076-.427-.11-.243.121-.501.115-.704.12a.26.26 0 0 1-.303.04l-.014-.008-.003-.001-.032-.01c-.035-.01-.084-.021-.139-.04-.06-.02-.151-.049-.234-.118a4.964 4.964 0 0 1-.413-.006.247.247 0 0 1-.206.087 2.307 2.307 0 0 0-.183-.009c-.523 0-1.191.13-1.882.13-.17 0-.344-.008-.516-.028a.252.252 0 0 1-.186-.12l-.096.032a.255.255 0 0 1-.154.157 1.122 1.122 0 0 1-.358.055c-.27-.002-.512-.068-.698-.076l-.056-.004c-.102 0-.225.017-.37.018-.067 0-.145-.006-.22-.02a.24.24 0 0 1-.171-.135l-.003-.009-.081.009h-.122c-.41 0-.788-.11-1.09-.108l-.042.003-.117-.022-.087.01-.063.001a.24.24 0 0 1-.172.111l-.037.005c-.14-.002-.331.066-.59.07-.098 0-.186-.005-.255-.005h-.005a.26.26 0 0 1-.13.154c-.073.033-.12.031-.158.035a1.002 1.002 0 0 1-.366-.092l-.059-.041-.007-.007c-.235.023-.418.198-.842.218-.087 0-.185-.012-.282-.035l-.102-.051-.055.001-.063-.001a.251.251 0 0 1-.217-.163l-.014-.062h-.074l-.029.003-.105-.006a.335.335 0 0 1-.05.137.268.268 0 0 1-.153.11c-.046.007-.076.007-.103.007l-.044-.001-.067.037c-.1.041-.187.04-.251.041h-.078l-.107.008a.255.255 0 0 1-.228-.065 5.109 5.109 0 0 0-.789-.069c-.149 0-.295.007-.442.031a.252.252 0 0 1-.276-.161h-.008a.678.678 0 0 1-.135-.01c-.073.002-.187-.062-.218-.133l-.055-.005a.552.552 0 0 0-.178.03c-.04.004-.138.098-.35.127a1.809 1.809 0 0 1-.347.004v.004a.255.255 0 0 1-.215.087 4.411 4.411 0 0 0-.339-.013c-.3 0-.617.023-.93.023h-.076c-.14.093-.24.061-.272.081a.249.249 0 0 1-.2-.05l-.047-.01a2.156 2.156 0 0 0-.217-.014c-.138-.007-.29-.003-.436-.026a.428.428 0 0 1-.166.04c-.082.008-.173-.04-.232-.1a.265.265 0 0 1-.16.018l-.125-.011c-.252-.008-.532.167-.93.226-.07.007-.133.01-.198.01-.33-.003-.635-.08-.936-.14a.244.244 0 0 1-.148.083.977.977 0 0 1-.124.007c-.22-.005-.368-.062-.487-.062-.049-.005-.091-.005-.139-.005-.673-.007-1.338.228-2.105.233-.15 0-.302-.01-.456-.034a.25.25 0 0 1-.173-.105l-.043.017a1.72 1.72 0 0 1-.43.049c-.164 0-.327-.018-.458-.046l-.063-.032a3.734 3.734 0 0 1-.65.051c-.19 0-.375-.008-.55-.026-.029-.004-.031 0-.093-.018-.003-.02-.056.006-.108-.075-.16.014-.335.04-.495.068a.257.257 0 0 1-.249-.1c-.008-.01.002-.013-.074-.02-.103-.001-.286.05-.48.073-.446.054-.965.074-1.347.118l-.059.005-.121-.03c-.268.016-.537.023-.81.023-.317 0-.63-.008-.935-.008-.348 0-.681.011-.98.044a.257.257 0 0 1-.147.12c-.306.093-.64.08-.933.116-.045 0-.132.042-.284.049l-.048-.002a.543.543 0 0 1-.177-.065c-.136.083-.273.071-.393.1-.09.01-.17.027-.27.027a.482.482 0 0 1-.322-.119l-.082-.003a.738.738 0 0 0-.13.005.245.245 0 0 1-.277.13 3.248 3.248 0 0 0-.665-.075h-.075a.243.243 0 0 1-.166-.049l-.058.006-.046.065a.253.253 0 0 1-.198.073 2.637 2.637 0 0 0-.252-.011c-.559-.001-1.106.135-1.676.183l-.126-.021-.078-.05-.016.015c-.107.075-.196.087-.254.105a.254.254 0 0 1-.217-.033 2.048 2.048 0 0 1-.213.009.25.25 0 0 1-.232-.15c-.243.025-.451.06-.535.128l-.14.045h-.122c-.635 0-1.31-.035-1.83-.035l-.047.001c-.183-.001-.413.04-.664.057-.159.012-.316.026-.474.042-.051.087-.132.172-.34.207a.313.313 0 0 1-.19-.06h-.087c-.263 0-.51-.046-.721-.044-.047 0-.093.002-.135.007-.031-.012-.145.088-.39.099a.519.519 0 0 1-.274-.076l-.06-.055c-.112.025-.236.049-.372.053l-.1-.005-.02.02a.325.325 0 0 1-.18.06c-.139-.018-.185-.058-.207-.08a.711.711 0 0 0-.14-.012c-.242-.003-.628.079-.983.08h-.079l-.04.033a.44.44 0 0 1-.27.088c-.103-.004-.16-.018-.201-.026l-.046.064a.256.256 0 0 1-.249.078c-.273-.092-.362-.227-.38-.206l-.024-.003c-.041-.003-.122.02-.234.034l-.016.024-.09.08c-.206.11-.423.118-.594.147a.277.277 0 0 1-.162-.03h-.004c-.31-.005-.695.157-1.209.165l-.118-.004a.261.261 0 0 1-.157-.063l-.035.009a.258.258 0 0 1-.205-.039l-.028-.003c-.083-.004-.264.058-.491.064a.875.875 0 0 1-.188-.022l-.089-.042c-.142.01-.263.021-.325.053a.247.247 0 0 1-.193 0h-.008c-.49.048-.994.08-1.495.135-.532.057-1.077.14-1.6.175l-.094.004h-.012c-.55 0-.95-.343-1.116-.788zm5.107.443zm41.7-1.391v-.002.002zm20.757-.325v-.002.002zm6.706-.025v-.002.002zm-12.185-.08v-.005.005zm-18.77-.25v-.001.002z"/>
        <path fill="#490E6F" d="M50.568 41.742h-8.38a.184.184 0 0 1-.128-.055.182.182 0 0 1-.05-.124V26.475c0-3.645-.09-5.792-.188-7.678a.17.17 0 0 1 .053-.13.175.175 0 0 1 .126-.054h7.173c.093 0 .17.07.177.161l.207 3.015.043.649.295-.583c1.402-2.769 4.023-3.755 5.837-3.755.76 0 1.117.01 1.721.152.085.016.14.085.14.168v7.824a.18.18 0 0 1-.069.136l-.112.04a9.26 9.26 0 0 0-2.141-.233c-2.426.018-3.983.988-4.388 2.732-.092.414-.135.87-.135 1.397v11.247c0 .048-.02.095-.051.125l-.13.054zM64.984 42.25h-.025c-2.221 0-4.222-.789-5.63-2.219-1.337-1.354-2.077-3.175-2.077-5.134-.008-2.956 1.308-5.323 3.806-6.844 2.247-1.377 5.37-2.104 9.284-2.167l.198-.001-.024-.2c-.053-.41-.255-.722-.636-.982-.576-.392-1.577-.599-2.902-.599-2.481 0-5.892 1.547-7.152 2.298l-.092.023c-.101-.026-.154-.062-.172-.128l.002-5.884c-.03-.13.011-.217.087-.254 1.59-.787 4.153-2.06 8.864-2.06 3.758 0 6.582.995 8.388 2.95 1.6 1.72 2.412 4.168 2.412 7.276v7.685c-.007 2.569.123 4.528.362 5.513.014.051 0 .11-.035.158a.197.197 0 0 1-.14.061H71.96a.18.18 0 0 1-.173-.142l-.343-1.466-.072-.309-.227.22c-1.512 1.464-3.584 2.205-6.16 2.205zm5.821-10.926l-.182.004c-1.524.035-2.706.273-3.507.71-.896.492-1.296 1.13-1.308 2.07.002.655.196 1.141.6 1.494.384.334.932.507 1.595.507 1.192 0 2.404-.87 2.715-1.94.085-.343.087-.75.087-1.17v-1.675zM90.906 42.251c-2.354 0-4.49-.779-5.856-2.136-1.475-1.472-2.195-3.844-2.195-7.253V25.073h-2.663a.175.175 0 0 1-.178-.172v-6.112l.054-.124.124-.053h2.663v-4.125c0-.082.052-.15.133-.171l8.196-2.177.045-.002a.15.15 0 0 1 .105.033.17.17 0 0 1 .077.138v6.306h4.571c.049 0 .091.02.123.051l.052.124V24.9a.16.16 0 0 1-.052.123.162.162 0 0 1-.123.05H91.41V31.427c-.004 1.372.174 2.303.545 2.847.388.57.949.806 1.927.816.998 0 1.267 0 1.956-.178l.038-.001c.062 0 .095.013.122.032a.177.177 0 0 1 .072.14v6.34a.186.186 0 0 1-.126.17c-.965.315-2.795.657-5.039.657M107.2 41.742h-8.38l-.128-.055a.179.179 0 0 1-.049-.124v-22.77c0-.05.02-.093.051-.125l.126-.055h8.38c.046 0 .094.02.126.055a.173.173 0 0 1 .055.125v22.77c0 .046-.02.092-.055.125a.177.177 0 0 1-.125.054m-4.236-25.09h-.006c-1.295 0-2.407-.419-3.215-1.207-.774-.757-1.197-1.806-1.195-2.952-.002-1.16.433-2.205 1.221-2.945.809-.763 1.93-1.167 3.243-1.167 2.617 0 4.432 1.69 4.463 4.109.002 1.15-.436 2.197-1.226 2.957-.825.788-1.962 1.206-3.285 1.206M117.429 42.25c-2.927 0-5.883-.614-7.903-1.643a.176.176 0 0 1-.093-.194l1.395-5.883a.18.18 0 0 1 .104-.118l.085-.007.079.02c1.268.779 4.276 1.684 6.254 1.684.885 0 1.498-.1 1.852-.295.338-.193.451-.382.474-.77-.026-.404-.07-.564-.479-.87-.39-.265-1.101-.553-2.38-.958-5.962-1.844-6.838-5.182-6.83-7.008V26.1c-.005-2.274.972-4.316 2.752-5.745 1.82-1.474 4.342-2.257 7.3-2.257 2.563.007 5.15.497 6.92 1.315a.18.18 0 0 1 .098.207l-1.352 5.64a.185.185 0 0 1-.096.126l-.153-.001c-.886-.426-3.066-1.235-4.979-1.235-.744 0-1.289.098-1.618.281-.359.207-.49.424-.504.83.015.324.107.517.623.844.47.293 1.306.625 2.701 1.078 4.287 1.38 6.383 3.753 6.408 7.257.004 2.286-.91 4.218-2.654 5.585-1.88 1.476-4.57 2.224-8.004 2.224M26.547 51.42c-3.263-.008-6.479-.639-8.603-1.688a.185.185 0 0 1-.093-.2l1.583-6.3a.19.19 0 0 1 .106-.12l.08-.006.071.015c1.495.795 4.084 1.596 6.5 1.596 1.536 0 2.8-.41 3.686-1.187.976-.861 1.472-2.13 1.474-3.771v-.619l-.306.305c-1.33 1.32-3.168 2.016-5.324 2.016-2.785.002-5.29-1.1-7.063-3.107-1.811-2.052-2.77-4.864-2.77-8.13 0-3.449 1.1-6.565 3.092-8.782 1.938-2.154 4.594-3.34 7.474-3.34 2.431 0 4.309.798 5.607 2.374l.27.327.05-.42.183-1.615a.181.181 0 0 1 .178-.156h7.261c.052 0 .102.021.137.062a.17.17 0 0 1 .043.133c-.16 1.56-.229 3.725-.229 7.02v12.4c-.003 4.886-1.15 8.166-3.61 10.326-2.336 1.956-5.448 2.867-9.797 2.867m4.664-23.236c.006-.301-.047-.73-.087-1.027-.394-1.594-1.361-2.434-2.806-2.45h-.001c-.974.002-1.828.467-2.47 1.348-.706.976-1.081 2.372-1.081 4.035 0 1.429.342 2.696.963 3.57.638.914 1.512 1.38 2.586 1.385 1.364-.002 2.472-.854 2.761-2.126.099-.321.143-.866.135-1.681"/>
    </g>
</svg>
