<svg viewBox="0 0 1000 140" xmlns="http://www.w3.org/2000/svg"><path d="m0 140 18.526-29.64h107.448c6.087 0 10.057-3.97 10.057-10.058V83.1H43.667C16.144 83.1 3.97 70.926 3.97 43.932V32.287C3.97 12.174 15.88 0 34.67 0h2.116v43.403c0 6.087 3.97 10.056 10.057 10.056h89.452c20.378 0 32.552 12.174 32.552 32.023v15.35c0 26.2-12.968 39.168-39.697 39.168H0Zm643.879-30.17h83.1c13.762 0 22.496-8.469 22.496-21.701V51.87c0-13.232-8.734-21.7-22.496-21.7h-83.1v79.659ZM610.533 140V0h117.24c34.934 0 55.048 20.113 55.048 53.46v33.08c0 33.347-20.114 53.46-55.048 53.46h-117.24Zm-161.6-30.17h70.133c12.704 0 20.908-7.94 20.908-20.378V50.548c0-12.438-8.204-20.378-20.908-20.378h-70.132c-12.704 0-20.908 7.94-20.908 20.378v38.904c0 12.438 8.205 20.378 20.908 20.378ZM519.86 140h-71.72c-33.876 0-53.46-19.584-53.46-52.136V52.136C394.68 19.584 414.264 0 448.14 0h71.72c33.876 0 53.46 19.584 53.46 52.136v35.728c0 32.552-19.584 52.136-53.46 52.136Zm276.623 0L875.085 0h46.314L1000 140h-38.11l-13.497-24.083h-66.957L863.44 87.335 833.8 140h-37.317Zm67.751-54.253h67.221L897.845 26.2l-33.611 59.547ZM69.604 29.11 50.547 0h115.124l-18.526 29.111H69.603ZM205.54 140V0h33.346v54.518h44.197L340.514 0h44.196l-73.044 69.603L386.033 140H339.19l-57.43-55.312h-42.873V140h-33.346Z" fill="#1F5044" fill-rule="nonzero"></path></svg>